<?xml version="1.0" standalone="no"?>
<!DOCTYPE svg PUBLIC "-//W3C//DTD SVG 20010904//EN"
 "http://www.w3.org/TR/2001/REC-SVG-20010904/DTD/svg10.dtd">
<svg version="1.0" xmlns="http://www.w3.org/2000/svg"
 width="400.000000pt" height="41.000000pt" viewBox="0 0 400.000000 41.000000"
 preserveAspectRatio="xMidYMid meet">

<g transform="translate(0.000000,41.000000) scale(0.100000,-0.100000)"
fill="#000000" stroke="none">
<path d="M650 355 c0 -3 5 -14 12 -24 10 -17 13 -17 30 -2 26 22 22 31 -12 31
-16 0 -30 -2 -30 -5z"/>
<path d="M90 337 c-14 -7 -31 -25 -38 -40 -19 -39 2 -76 58 -105 25 -12 47
-27 48 -32 5 -13 -35 -13 -43 0 -3 6 -19 10 -36 10 -26 0 -29 -3 -29 -34 0
-39 14 -46 92 -46 60 0 94 15 108 51 18 42 -4 79 -64 107 -36 17 -46 26 -37
35 8 8 14 8 23 -1 7 -7 27 -12 45 -12 30 0 33 3 33 30 0 25 -5 30 -37 39 -50
14 -93 13 -123 -2z"/>
<path d="M2198 339 c-16 -6 -31 -23 -37 -41 -15 -43 4 -78 59 -106 25 -12 47
-27 48 -32 5 -13 -35 -13 -43 0 -3 6 -19 10 -36 10 -26 0 -29 -3 -29 -34 0
-39 14 -46 92 -46 62 0 95 16 107 53 16 44 -4 77 -63 105 -36 17 -46 26 -37
35 8 8 14 8 23 -1 7 -7 25 -12 40 -12 24 0 28 4 28 29 0 17 -5 33 -10 36 -19
12 -115 15 -142 4z"/>
<path d="M2823 335 c-45 -19 -66 -65 -61 -133 4 -47 10 -60 37 -84 26 -23 40
-28 86 -28 78 0 105 13 105 49 0 16 5 33 10 36 6 3 10 15 10 26 0 17 -7 19
-60 19 -57 0 -60 -1 -60 -24 0 -13 6 -26 13 -29 9 -3 9 -7 0 -17 -6 -7 -19
-10 -27 -7 -13 5 -16 22 -16 77 0 64 2 70 21 70 12 0 23 -8 26 -20 4 -16 14
-20 44 -20 39 0 39 0 39 40 0 37 -2 40 -37 49 -51 14 -91 13 -130 -4z"/>
<path d="M3164 336 c-46 -20 -64 -52 -64 -113 0 -68 13 -99 49 -118 34 -17
107 -20 145 -5 22 8 26 16 26 50 0 40 0 40 -39 40 -33 0 -40 -4 -43 -22 -2
-13 -10 -23 -18 -23 -12 0 -16 16 -18 73 -3 67 -1 72 18 72 13 0 20 -7 20 -20
0 -17 7 -20 40 -20 40 0 40 0 40 40 0 37 -2 40 -37 49 -50 14 -81 13 -119 -3z"/>
<path d="M3393 335 c-36 -16 -50 -37 -59 -93 -14 -92 34 -152 122 -152 45 0
59 5 85 28 39 35 50 106 25 165 -25 60 -102 83 -173 52z m85 -114 c3 -69 -7
-92 -33 -71 -10 8 -15 30 -15 70 0 61 5 72 30 68 11 -2 16 -19 18 -67z"/>
<path d="M270 315 c0 -14 5 -25 10 -25 13 0 13 -137 0 -145 -5 -3 -10 -17 -10
-31 0 -23 2 -24 70 -24 67 0 70 1 70 24 0 15 -7 26 -20 29 -12 3 -20 14 -20
26 0 16 6 21 25 21 47 0 92 26 98 56 6 31 -7 74 -26 86 -7 4 -54 8 -104 8 -93
0 -93 0 -93 -25z m135 -50 c0 -11 -8 -21 -17 -23 -14 -3 -18 3 -18 23 0 20 4
26 18 23 9 -2 17 -12 17 -23z"/>
<path d="M915 215 l0 -125 58 0 c54 0 57 1 57 25 0 14 -4 25 -10 25 -5 0 -10
14 -10 31 0 24 4 30 18 27 13 -2 18 -15 20 -56 l3 -52 50 0 c40 0 49 3 49 18
0 29 -19 85 -32 93 -9 6 -8 12 5 27 23 25 22 67 -3 92 -17 17 -33 20 -112 20
l-93 0 0 -125z m135 50 c0 -18 -5 -25 -20 -25 -15 0 -20 7 -20 25 0 18 5 25
20 25 15 0 20 -7 20 -25z"/>
<path d="M1150 305 c0 -32 2 -35 30 -35 17 0 30 5 30 10 0 6 5 10 10 10 6 0
10 -32 10 -75 0 -43 -4 -75 -10 -75 -5 0 -10 -11 -10 -25 0 -24 2 -25 65 -25
63 0 65 1 65 25 0 14 -4 25 -10 25 -6 0 -10 32 -10 75 0 43 4 75 10 75 6 0 10
-4 10 -10 0 -5 14 -10 30 -10 28 0 30 3 30 35 l0 35 -125 0 -125 0 0 -35z"/>
<path d="M1410 315 c0 -14 5 -25 10 -25 6 0 10 -32 10 -75 0 -43 -4 -75 -10
-75 -5 0 -10 -12 -10 -26 l0 -26 99 4 c80 2 103 7 120 22 30 27 28 73 -4 88
l-24 11 25 30 c17 20 23 36 18 51 -11 39 -33 46 -136 46 -98 0 -98 0 -98 -25z
m145 -50 c0 -11 -8 -21 -17 -23 -14 -3 -18 3 -18 23 0 20 4 26 18 23 9 -2 17
-12 17 -23z m0 -95 c0 -16 -6 -26 -17 -28 -14 -3 -18 3 -18 28 0 25 4 31 18
28 11 -2 17 -12 17 -28z"/>
<path d="M1675 215 l0 -125 108 0 107 0 0 50 0 50 -40 0 c-36 0 -40 -2 -40
-25 0 -18 -5 -25 -20 -25 -16 0 -20 7 -20 30 0 20 5 30 15 30 8 0 15 9 15 20
0 11 -7 20 -15 20 -9 0 -15 9 -15 25 0 18 5 25 20 25 13 0 20 -7 20 -20 0 -17
7 -20 40 -20 l40 0 0 45 0 45 -107 0 -108 0 0 -125z"/>
<path d="M1900 305 c0 -31 3 -35 25 -35 14 0 25 5 25 10 0 6 7 10 15 10 12 0
15 -14 15 -70 0 -54 -4 -72 -15 -76 -8 -4 -15 -17 -15 -30 0 -23 3 -24 70 -24
68 0 70 1 70 25 0 14 -4 25 -10 25 -6 0 -10 32 -10 75 0 43 4 75 10 75 6 0 10
-4 10 -10 0 -5 11 -10 25 -10 22 0 25 4 25 35 l0 35 -120 0 -120 0 0 -35z"/>
<path d="M2515 215 l0 -125 82 0 c97 0 130 11 143 46 12 31 -9 74 -37 74 -12
0 -9 6 11 25 15 13 26 35 26 49 0 42 -33 56 -135 56 l-90 0 0 -125z m135 50
c0 -18 -5 -25 -20 -25 -15 0 -20 7 -20 25 0 18 5 25 20 25 15 0 20 -7 20 -25z
m-2 -92 c-2 -17 -10 -29 -20 -31 -14 -3 -18 3 -18 27 0 25 4 31 21 31 16 0 20
-5 17 -27z"/>
<path d="M3590 321 c0 -11 5 -23 10 -26 6 -3 10 -40 10 -81 0 -43 -4 -74 -10
-74 -5 0 -10 -11 -10 -25 0 -24 3 -25 55 -25 51 0 55 2 55 23 0 13 -5 28 -11
34 -5 5 -9 32 -7 59 l3 49 30 -82 c25 -70 33 -83 52 -83 18 0 26 13 50 83 l28
82 3 -55 c2 -32 -1 -56 -7 -58 -6 -2 -11 -15 -11 -28 0 -23 3 -24 58 -24 l57
0 0 125 0 125 -67 0 -66 0 -12 -37 c-18 -57 -26 -59 -40 -9 l-13 46 -78 0
c-72 0 -79 -2 -79 -19z"/>
<path d="M546 282 c-3 -5 -7 -20 -10 -34 -4 -24 -3 -25 23 -15 25 9 26 13 17
33 -11 25 -21 30 -30 16z"/>
<path d="M784 267 c-9 -19 -7 -26 12 -40 13 -9 25 -17 29 -17 7 0 1 38 -10 63
-10 23 -18 21 -31 -6z"/>
<path d="M652 250 c-17 -14 -21 -25 -16 -48 5 -26 11 -31 44 -34 21 -2 36 0
33 4 -2 5 2 21 9 36 14 26 13 28 -17 43 -29 15 -32 15 -53 -1z"/>
<path d="M2380 185 c0 -24 3 -25 55 -25 52 0 55 1 55 25 0 24 -3 25 -55 25
-52 0 -55 -1 -55 -25z"/>
<path d="M736 128 c3 -4 -2 -21 -10 -37 -15 -27 -14 -29 3 -24 10 3 34 17 52
33 l34 27 -42 4 c-23 3 -39 1 -37 -3z"/>
<path d="M3020 115 c0 -20 5 -25 25 -25 20 0 25 5 25 25 0 20 -5 25 -25 25
-20 0 -25 -5 -25 -25z"/>
<path d="M585 120 l-30 -6 35 -22 c37 -23 46 -19 33 14 -6 15 -14 18 -38 14z"/>
</g>
</svg>
